<mxfile host="app.diagrams.net" modified="2024-09-01T11:17:51.426Z" agent="Mozilla/5.0 (X11; Linux x86_64) AppleWebKit/537.36 (KHTML, like Gecko) Chrome/111.0.0.0 Safari/537.36" etag="y362SvuKqOnY7JgfxEF1" version="24.6.4" type="device">
  <diagram name="Page-1" id="-juodiGA8Af6VCQ5k5kw">
    <mxGraphModel dx="2315" dy="975" grid="1" gridSize="10" guides="1" tooltips="1" connect="1" arrows="1" fold="1" page="1" pageScale="1" pageWidth="827" pageHeight="1169" math="0" shadow="0">
      <root>
        <mxCell id="0" />
        <mxCell id="1" parent="0" />
        <mxCell id="pqIxFKDnH3xnDHLZU4IL-41" value="" style="rounded=0;whiteSpace=wrap;html=1;fillColor=#E6E6E6;gradientColor=none;strokeColor=#666666;" vertex="1" parent="1">
          <mxGeometry x="160" y="210" width="700" height="140" as="geometry" />
        </mxCell>
        <mxCell id="pqIxFKDnH3xnDHLZU4IL-33" value="" style="rounded=0;whiteSpace=wrap;html=1;fillColor=#E6E6E6;gradientColor=none;strokeColor=#666666;" vertex="1" parent="1">
          <mxGeometry x="160" y="370" width="700" height="240" as="geometry" />
        </mxCell>
        <mxCell id="pqIxFKDnH3xnDHLZU4IL-31" value="" style="rounded=0;whiteSpace=wrap;html=1;fillColor=#E6E6E6;gradientColor=none;strokeColor=#666666;" vertex="1" parent="1">
          <mxGeometry x="-150" y="390" width="200" height="210" as="geometry" />
        </mxCell>
        <mxCell id="pqIxFKDnH3xnDHLZU4IL-29" value="" style="rounded=0;whiteSpace=wrap;html=1;fillColor=#E6E6E6;gradientColor=none;strokeColor=#666666;" vertex="1" parent="1">
          <mxGeometry x="187" y="670" width="640" height="215" as="geometry" />
        </mxCell>
        <mxCell id="pqIxFKDnH3xnDHLZU4IL-15" value="" style="rounded=0;whiteSpace=wrap;html=1;fillColor=#dae8fc;strokeColor=#6c8ebf;" vertex="1" parent="1">
          <mxGeometry x="253" y="250" width="242" height="80" as="geometry" />
        </mxCell>
        <mxCell id="pqIxFKDnH3xnDHLZU4IL-1" value="Compute Node (Openstack)" style="rounded=0;whiteSpace=wrap;html=1;" vertex="1" parent="1">
          <mxGeometry x="190" y="485" width="120" height="60" as="geometry" />
        </mxCell>
        <mxCell id="pqIxFKDnH3xnDHLZU4IL-2" value="Compute Node (Kubernetes)" style="rounded=0;whiteSpace=wrap;html=1;" vertex="1" parent="1">
          <mxGeometry x="320" y="485" width="120" height="60" as="geometry" />
        </mxCell>
        <mxCell id="pqIxFKDnH3xnDHLZU4IL-3" value="Compute Pool" style="rounded=0;whiteSpace=wrap;html=1;" vertex="1" parent="1">
          <mxGeometry x="190" y="415" width="640" height="60" as="geometry" />
        </mxCell>
        <mxCell id="pqIxFKDnH3xnDHLZU4IL-4" value="Ceph" style="rounded=0;whiteSpace=wrap;html=1;" vertex="1" parent="1">
          <mxGeometry x="383" y="762.5" width="287" height="50" as="geometry" />
        </mxCell>
        <mxCell id="pqIxFKDnH3xnDHLZU4IL-5" value="RDS" style="rounded=0;whiteSpace=wrap;html=1;" vertex="1" parent="1">
          <mxGeometry x="388.5" y="707.5" width="50" height="35" as="geometry" />
        </mxCell>
        <mxCell id="pqIxFKDnH3xnDHLZU4IL-6" value="CephFS" style="rounded=0;whiteSpace=wrap;html=1;" vertex="1" parent="1">
          <mxGeometry x="462" y="707.5" width="90" height="35" as="geometry" />
        </mxCell>
        <mxCell id="pqIxFKDnH3xnDHLZU4IL-7" value="Object" style="rounded=0;whiteSpace=wrap;html=1;" vertex="1" parent="1">
          <mxGeometry x="575" y="707.5" width="90" height="35" as="geometry" />
        </mxCell>
        <mxCell id="pqIxFKDnH3xnDHLZU4IL-8" value="VM" style="rounded=0;whiteSpace=wrap;html=1;" vertex="1" parent="1">
          <mxGeometry x="260" y="280" width="40" height="40" as="geometry" />
        </mxCell>
        <mxCell id="pqIxFKDnH3xnDHLZU4IL-9" value="Container" style="rounded=0;whiteSpace=wrap;html=1;" vertex="1" parent="1">
          <mxGeometry x="305" y="280" width="65" height="40" as="geometry" />
        </mxCell>
        <mxCell id="pqIxFKDnH3xnDHLZU4IL-10" value="GPU" style="rounded=0;whiteSpace=wrap;html=1;" vertex="1" parent="1">
          <mxGeometry x="373" y="280" width="40" height="40" as="geometry" />
        </mxCell>
        <mxCell id="pqIxFKDnH3xnDHLZU4IL-11" value="OVN" style="rounded=0;whiteSpace=wrap;html=1;" vertex="1" parent="1">
          <mxGeometry x="190" y="555" width="640" height="30" as="geometry" />
        </mxCell>
        <mxCell id="pqIxFKDnH3xnDHLZU4IL-12" value="Controller Node" style="rounded=0;whiteSpace=wrap;html=1;" vertex="1" parent="1">
          <mxGeometry x="-110" y="430" width="120" height="60" as="geometry" />
        </mxCell>
        <mxCell id="pqIxFKDnH3xnDHLZU4IL-13" value="Bare Metal" style="rounded=0;whiteSpace=wrap;html=1;" vertex="1" parent="1">
          <mxGeometry x="707" y="485" width="123" height="60" as="geometry" />
        </mxCell>
        <mxCell id="pqIxFKDnH3xnDHLZU4IL-14" value="Network Node" style="rounded=0;whiteSpace=wrap;html=1;" vertex="1" parent="1">
          <mxGeometry x="-110" y="500" width="120" height="60" as="geometry" />
        </mxCell>
        <mxCell id="pqIxFKDnH3xnDHLZU4IL-16" value="VPC" style="text;html=1;align=center;verticalAlign=middle;whiteSpace=wrap;rounded=0;" vertex="1" parent="1">
          <mxGeometry x="245" y="250" width="60" height="30" as="geometry" />
        </mxCell>
        <mxCell id="pqIxFKDnH3xnDHLZU4IL-22" value="Cluster Node (Database)" style="rounded=0;whiteSpace=wrap;html=1;" vertex="1" parent="1">
          <mxGeometry x="448" y="485" width="120" height="60" as="geometry" />
        </mxCell>
        <mxCell id="pqIxFKDnH3xnDHLZU4IL-23" value="Cluster Node (Mddleware)" style="rounded=0;whiteSpace=wrap;html=1;" vertex="1" parent="1">
          <mxGeometry x="575" y="485" width="120" height="60" as="geometry" />
        </mxCell>
        <mxCell id="pqIxFKDnH3xnDHLZU4IL-30" value="Storage Plane" style="text;html=1;align=center;verticalAlign=middle;whiteSpace=wrap;rounded=0;" vertex="1" parent="1">
          <mxGeometry x="185" y="670" width="115" height="30" as="geometry" />
        </mxCell>
        <mxCell id="pqIxFKDnH3xnDHLZU4IL-32" value="Controller Plane" style="text;html=1;align=center;verticalAlign=middle;whiteSpace=wrap;rounded=0;" vertex="1" parent="1">
          <mxGeometry x="-160" y="390" width="120" height="30" as="geometry" />
        </mxCell>
        <mxCell id="pqIxFKDnH3xnDHLZU4IL-34" value="Compute Plane" style="text;html=1;align=center;verticalAlign=middle;whiteSpace=wrap;rounded=0;" vertex="1" parent="1">
          <mxGeometry x="160" y="370" width="110" height="30" as="geometry" />
        </mxCell>
        <mxCell id="pqIxFKDnH3xnDHLZU4IL-35" value="Service Instance" style="rounded=0;whiteSpace=wrap;html=1;" vertex="1" parent="1">
          <mxGeometry x="416" y="280" width="69" height="40" as="geometry" />
        </mxCell>
        <mxCell id="pqIxFKDnH3xnDHLZU4IL-42" value="" style="rounded=0;whiteSpace=wrap;html=1;fillColor=#fff2cc;strokeColor=#d6b656;" vertex="1" parent="1">
          <mxGeometry x="533" y="250" width="242" height="80" as="geometry" />
        </mxCell>
        <mxCell id="pqIxFKDnH3xnDHLZU4IL-43" value="VM" style="rounded=0;whiteSpace=wrap;html=1;" vertex="1" parent="1">
          <mxGeometry x="540" y="280" width="40" height="40" as="geometry" />
        </mxCell>
        <mxCell id="pqIxFKDnH3xnDHLZU4IL-44" value="Container" style="rounded=0;whiteSpace=wrap;html=1;" vertex="1" parent="1">
          <mxGeometry x="585" y="280" width="65" height="40" as="geometry" />
        </mxCell>
        <mxCell id="pqIxFKDnH3xnDHLZU4IL-45" value="GPU" style="rounded=0;whiteSpace=wrap;html=1;" vertex="1" parent="1">
          <mxGeometry x="653" y="280" width="40" height="40" as="geometry" />
        </mxCell>
        <mxCell id="pqIxFKDnH3xnDHLZU4IL-46" value="VPC" style="text;html=1;align=center;verticalAlign=middle;whiteSpace=wrap;rounded=0;" vertex="1" parent="1">
          <mxGeometry x="525" y="250" width="60" height="30" as="geometry" />
        </mxCell>
        <mxCell id="pqIxFKDnH3xnDHLZU4IL-47" value="Service Instance" style="rounded=0;whiteSpace=wrap;html=1;" vertex="1" parent="1">
          <mxGeometry x="696" y="280" width="69" height="40" as="geometry" />
        </mxCell>
        <mxCell id="pqIxFKDnH3xnDHLZU4IL-48" value="IaaS" style="text;html=1;align=center;verticalAlign=middle;whiteSpace=wrap;rounded=0;" vertex="1" parent="1">
          <mxGeometry x="160" y="210" width="60" height="30" as="geometry" />
        </mxCell>
        <mxCell id="pqIxFKDnH3xnDHLZU4IL-49" value="" style="rounded=0;whiteSpace=wrap;html=1;fillColor=#E6E6E6;gradientColor=none;strokeColor=#666666;" vertex="1" parent="1">
          <mxGeometry x="158.5" y="80" width="703" height="110" as="geometry" />
        </mxCell>
        <mxCell id="pqIxFKDnH3xnDHLZU4IL-50" value="PaaS" style="text;html=1;align=center;verticalAlign=middle;whiteSpace=wrap;rounded=0;" vertex="1" parent="1">
          <mxGeometry x="155.5" y="80" width="60" height="30" as="geometry" />
        </mxCell>
        <mxCell id="pqIxFKDnH3xnDHLZU4IL-51" value="Database" style="rounded=0;whiteSpace=wrap;html=1;" vertex="1" parent="1">
          <mxGeometry x="218.5" y="120" width="87" height="40" as="geometry" />
        </mxCell>
        <mxCell id="pqIxFKDnH3xnDHLZU4IL-52" value="Middleware" style="rounded=0;whiteSpace=wrap;html=1;" vertex="1" parent="1">
          <mxGeometry x="336" y="120" width="87" height="40" as="geometry" />
        </mxCell>
        <mxCell id="pqIxFKDnH3xnDHLZU4IL-53" value="Monitoring" style="rounded=0;whiteSpace=wrap;html=1;" vertex="1" parent="1">
          <mxGeometry x="451.5" y="120" width="87" height="40" as="geometry" />
        </mxCell>
        <mxCell id="pqIxFKDnH3xnDHLZU4IL-54" value="Api Gateway" style="rounded=0;whiteSpace=wrap;html=1;" vertex="1" parent="1">
          <mxGeometry x="568.5" y="120" width="87" height="40" as="geometry" />
        </mxCell>
        <mxCell id="pqIxFKDnH3xnDHLZU4IL-55" value="......" style="rounded=0;whiteSpace=wrap;html=1;" vertex="1" parent="1">
          <mxGeometry x="683.5" y="120" width="87" height="40" as="geometry" />
        </mxCell>
        <mxCell id="pqIxFKDnH3xnDHLZU4IL-59" value="" style="shape=flexArrow;endArrow=classic;startArrow=classic;html=1;rounded=0;" edge="1" parent="1">
          <mxGeometry width="100" height="100" relative="1" as="geometry">
            <mxPoint x="70" y="494.5" as="sourcePoint" />
            <mxPoint x="145" y="494.5" as="targetPoint" />
          </mxGeometry>
        </mxCell>
        <mxCell id="pqIxFKDnH3xnDHLZU4IL-61" value="" style="shape=flexArrow;endArrow=classic;startArrow=classic;html=1;rounded=0;" edge="1" parent="1">
          <mxGeometry width="100" height="100" relative="1" as="geometry">
            <mxPoint x="506.5" y="665" as="sourcePoint" />
            <mxPoint x="506.5" y="615" as="targetPoint" />
          </mxGeometry>
        </mxCell>
      </root>
    </mxGraphModel>
  </diagram>
</mxfile>
